<svg width="97" height="101" viewBox="0 0 97 101" fill="none" xmlns="http://www.w3.org/2000/svg">
<rect width="97" height="101" fill="white"/>
<path d="M31.3847 0.0868301C23.3611 0.71019 16.0315 4.04003 10.3004 9.66605C2.61996 17.2016 -1.05263 27.7514 0.280729 38.4668C1.49713 48.2828 6.90075 57.0887 15.0881 62.6042C16.593 63.6221 17.209 63.9851 18.7528 64.7663C22.2773 66.5575 25.8173 67.6227 30.0201 68.1514C31.6342 68.3486 35.9696 68.3486 37.5836 68.1514C40.7338 67.7568 43.4473 67.0625 46.2778 65.9341C48.2349 65.1608 50.9562 63.701 52.6639 62.5175L53.2877 62.0914L61.6699 70.558C91.5731 100.755 91.0662 100.243 91.5185 100.503C92.9922 101.331 94.7232 101.095 95.9084 99.8953C97.0624 98.7275 97.312 97.0626 96.5634 95.5318C96.3997 95.1925 92.961 91.6812 77.6001 76.1288C60.3521 58.6668 58.855 57.1282 58.9486 56.994C59.011 56.9151 59.2605 56.6232 59.4944 56.3391C65.0618 49.7425 67.978 41.1339 67.5336 32.5804C67.284 27.7671 66.247 23.6167 64.2587 19.4504C62.9409 16.6966 61.6075 14.5977 59.6426 12.191C58.816 11.181 56.5626 8.90066 55.5567 8.05636C50.1999 3.56659 44.1491 0.954796 37.3419 0.197296C35.9852 0.0473709 32.6791 -0.0157471 31.3847 0.0868301ZM37.4667 7.57503C43.5253 8.50613 48.7963 11.2284 52.9212 15.5761C56.9447 19.8055 59.3853 24.9975 60.1728 30.9707C60.3599 32.4384 60.3599 35.8471 60.1728 37.3621C59.7517 40.6446 58.9408 43.3432 57.5061 46.2391C55.1902 50.9182 51.4319 54.9267 46.9016 57.5385C39.3848 61.8704 30.1137 62.1939 22.3241 58.3907C14.7216 54.6821 9.32575 47.6278 7.71948 39.2953C7.43097 37.7803 7.32181 36.7467 7.27502 34.916C7.22824 32.8803 7.30621 31.5783 7.60252 29.7793C8.8579 22.1175 13.3882 15.3315 19.9848 11.2521C23.5171 9.05846 27.2754 7.82753 31.7746 7.38566C31.9461 7.36987 33.0533 7.36198 34.2307 7.37776C35.9228 7.40144 36.6012 7.44089 37.4667 7.57503Z" fill="#6C63FF"/>
</svg>
